name rise42.5664peak47.7979fall81.9185.mot
datacolumns 19
datarows 36
range 5.01831100000000 5.07665100000000
endheader
time	ground_force1_vx	ground_force1_vy	ground_force1_vz	ground_force1_px	ground_force1_py	ground_force1_pz	ground_force2_vx	ground_force2_vy	ground_force2_vz	ground_force2_px	ground_force2_py	ground_force2_pz	ground_torque1_x	ground_torque1_y	ground_torque1_z	ground_torque2_x	ground_torque2_y	ground_torque2_z	
5.01831100000000	55.95465500000000	752.53027199999997	53.75929400000000	0.27131200000000	0.00000000000000	0.09906100000000	0.01126700000000	11.14077000000000	0.82066100000000	0.00000000000000	0.00000000000000	0.00000000000000	0.00000000000000	16.86436000000000	0.00000000000000	0.00000000000000	0.02882200000000	0.00000000000000	
5.01997700000000	55.50700200000000	756.15411099999994	53.97308900000000	0.27048000000000	0.00000000000000	0.09902700000000	0.20044900000000	6.88001800000000	0.54054900000000	0.00000000000000	0.00000000000000	0.00000000000000	0.00000000000000	16.93168400000000	0.00000000000000	0.00000000000000	0.04076000000000	0.00000000000000	
5.02164500000000	55.05789800000000	759.63411299999996	54.17982300000000	0.26966100000000	0.00000000000000	0.09899300000000	0.31233500000000	3.39330900000000	0.30309100000000	0.00000000000000	0.00000000000000	0.00000000000000	0.00000000000000	16.99544400000000	0.00000000000000	0.00000000000000	0.04550600000000	0.00000000000000	
5.02331000000000	54.60770700000000	762.96790899999996	54.37954400000000	0.26885300000000	0.00000000000000	0.09895800000000	0.00000000000000	0.00000000000000	0.00000000000000	0.00000000000000	0.00000000000000	0.00000000000000	0.00000000000000	17.05568700000000	0.00000000000000	0.00000000000000	0.00000000000000	0.00000000000000	
5.02498100000000	54.15672200000000	766.15321800000004	54.57225000000000	0.26805600000000	0.00000000000000	0.09892200000000	0.00000000000000	0.00000000000000	0.00000000000000	0.00000000000000	0.00000000000000	0.00000000000000	0.00000000000000	17.11244200000000	0.00000000000000	0.00000000000000	0.00000000000000	0.00000000000000	
5.02665100000000	53.70516400000000	769.18786499999999	54.75789100000000	0.26726800000000	0.00000000000000	0.09888500000000	0.00000000000000	0.00000000000000	0.00000000000000	0.00000000000000	0.00000000000000	0.00000000000000	0.00000000000000	17.16572100000000	0.00000000000000	0.00000000000000	0.00000000000000	0.00000000000000	
5.02831200000000	53.25318700000000	772.06978700000002	54.93636800000000	0.26648900000000	0.00000000000000	0.09884900000000	0.00000000000000	0.00000000000000	0.00000000000000	0.00000000000000	0.00000000000000	0.00000000000000	0.00000000000000	17.21551600000000	0.00000000000000	0.00000000000000	0.00000000000000	0.00000000000000	
5.02998000000000	52.80087800000000	774.79704700000002	55.10754100000000	0.26571700000000	0.00000000000000	0.09881200000000	0.00000000000000	0.00000000000000	0.00000000000000	0.00000000000000	0.00000000000000	0.00000000000000	0.00000000000000	17.26180500000000	0.00000000000000	0.00000000000000	0.00000000000000	0.00000000000000	
5.03165200000000	52.34826300000000	777.36784299999999	55.27122700000000	0.26495100000000	0.00000000000000	0.09877400000000	0.00000000000000	0.00000000000000	0.00000000000000	0.00000000000000	0.00000000000000	0.00000000000000	0.00000000000000	17.30455200000000	0.00000000000000	0.00000000000000	0.00000000000000	0.00000000000000	
5.03331100000000	51.89531000000000	779.78052000000002	55.42720800000000	0.26419000000000	0.00000000000000	0.09873700000000	0.00000000000000	0.00000000000000	0.00000000000000	0.00000000000000	0.00000000000000	0.00000000000000	0.00000000000000	17.34370800000000	0.00000000000000	0.00000000000000	0.00000000000000	0.00000000000000	
5.03498300000000	51.44193200000000	782.03358000000003	55.57523400000000	0.26343200000000	0.00000000000000	0.09869900000000	0.00000000000000	0.00000000000000	0.00000000000000	0.00000000000000	0.00000000000000	0.00000000000000	0.00000000000000	17.37921300000000	0.00000000000000	0.00000000000000	0.00000000000000	0.00000000000000	
5.03664200000000	50.98799100000000	784.12569399999995	55.71502300000000	0.26267700000000	0.00000000000000	0.09866100000000	0.00000000000000	0.00000000000000	0.00000000000000	0.00000000000000	0.00000000000000	0.00000000000000	0.00000000000000	17.41099800000000	0.00000000000000	0.00000000000000	0.00000000000000	0.00000000000000	
5.03831500000000	50.53330300000000	786.05570799999998	55.84627100000000	0.26192200000000	0.00000000000000	0.09862300000000	0.00000000000000	0.00000000000000	0.00000000000000	0.00000000000000	0.00000000000000	0.00000000000000	0.00000000000000	17.43898700000000	0.00000000000000	0.00000000000000	0.00000000000000	0.00000000000000	
5.03998100000000	50.07764000000000	787.82265700000005	55.96865100000000	0.26116700000000	0.00000000000000	0.09858600000000	0.00000000000000	0.00000000000000	0.00000000000000	0.00000000000000	0.00000000000000	0.00000000000000	0.00000000000000	17.46309800000000	0.00000000000000	0.00000000000000	0.00000000000000	0.00000000000000	
5.04164600000000	49.62073900000000	789.42577300000005	56.08182200000000	0.26041000000000	0.00000000000000	0.09854800000000	0.00000000000000	0.00000000000000	0.00000000000000	0.00000000000000	0.00000000000000	0.00000000000000	0.00000000000000	17.48324500000000	0.00000000000000	0.00000000000000	0.00000000000000	0.00000000000000	
5.04331700000000	49.16230100000000	790.86449300000004	56.18542900000000	0.25965000000000	0.00000000000000	0.09851000000000	0.00000000000000	0.00000000000000	0.00000000000000	0.00000000000000	0.00000000000000	0.00000000000000	0.00000000000000	17.49934200000000	0.00000000000000	0.00000000000000	0.00000000000000	0.00000000000000	
5.04497800000000	48.70200100000000	792.13846500000000	56.27911100000000	0.25888700000000	0.00000000000000	0.09847300000000	0.00000000000000	0.00000000000000	0.00000000000000	0.00000000000000	0.00000000000000	0.00000000000000	0.00000000000000	17.51130300000000	0.00000000000000	0.00000000000000	0.00000000000000	0.00000000000000	
5.04665100000000	48.23948800000000	793.24756200000002	56.36250500000000	0.25811800000000	0.00000000000000	0.09843600000000	0.00000000000000	0.00000000000000	0.00000000000000	0.00000000000000	0.00000000000000	0.00000000000000	0.00000000000000	17.51904100000000	0.00000000000000	0.00000000000000	0.00000000000000	0.00000000000000	
5.04831600000000	47.77439200000000	794.19188399999996	56.43524600000000	0.25734200000000	0.00000000000000	0.09839800000000	0.00000000000000	0.00000000000000	0.00000000000000	0.00000000000000	0.00000000000000	0.00000000000000	0.00000000000000	17.52247700000000	0.00000000000000	0.00000000000000	0.00000000000000	0.00000000000000	
5.04997800000000	47.30632900000000	794.97176500000000	56.49697900000000	0.25655900000000	0.00000000000000	0.09836200000000	0.00000000000000	0.00000000000000	0.00000000000000	0.00000000000000	0.00000000000000	0.00000000000000	0.00000000000000	17.52153500000000	0.00000000000000	0.00000000000000	0.00000000000000	0.00000000000000	
5.05164600000000	46.83490300000000	795.58778099999995	56.54735600000000	0.25576700000000	0.00000000000000	0.09832500000000	0.00000000000000	0.00000000000000	0.00000000000000	0.00000000000000	0.00000000000000	0.00000000000000	0.00000000000000	17.51614800000000	0.00000000000000	0.00000000000000	0.00000000000000	0.00000000000000	
5.05331200000000	46.35971500000000	796.04075399999999	56.58604400000000	0.25496600000000	0.00000000000000	0.09828900000000	0.00000000000000	0.00000000000000	0.00000000000000	0.00000000000000	0.00000000000000	0.00000000000000	0.00000000000000	17.50625700000000	0.00000000000000	0.00000000000000	0.00000000000000	0.00000000000000	
5.05497800000000	45.88036200000000	796.33175700000004	56.61272600000000	0.25415400000000	0.00000000000000	0.09825300000000	0.00000000000000	0.00000000000000	0.00000000000000	0.00000000000000	0.00000000000000	0.00000000000000	0.00000000000000	17.49181200000000	0.00000000000000	0.00000000000000	0.00000000000000	0.00000000000000	
5.05664600000000	45.39644700000000	796.46211600000004	56.62711100000000	0.25333000000000	0.00000000000000	0.09821700000000	0.00000000000000	0.00000000000000	0.00000000000000	0.00000000000000	0.00000000000000	0.00000000000000	0.00000000000000	17.47277900000000	0.00000000000000	0.00000000000000	0.00000000000000	0.00000000000000	
5.05830900000000	44.90757600000000	796.43341599999997	56.62892700000000	0.25249400000000	0.00000000000000	0.09818200000000	0.00000000000000	0.00000000000000	0.00000000000000	0.00000000000000	0.00000000000000	0.00000000000000	0.00000000000000	17.44913200000000	0.00000000000000	0.00000000000000	0.00000000000000	0.00000000000000	
5.05997500000000	44.41337000000000	796.24750100000006	56.61793400000000	0.25164600000000	0.00000000000000	0.09814700000000	0.00000000000000	0.00000000000000	0.00000000000000	0.00000000000000	0.00000000000000	0.00000000000000	0.00000000000000	17.42086400000000	0.00000000000000	0.00000000000000	0.00000000000000	0.00000000000000	
5.06164600000000	43.91346400000000	795.90647700000000	56.59392300000000	0.25078300000000	0.00000000000000	0.09811200000000	0.00000000000000	0.00000000000000	0.00000000000000	0.00000000000000	0.00000000000000	0.00000000000000	0.00000000000000	17.38797900000000	0.00000000000000	0.00000000000000	0.00000000000000	0.00000000000000	
5.06331300000000	43.40750900000000	795.41271099999994	56.55671600000000	0.24990700000000	0.00000000000000	0.09807800000000	0.00000000000000	0.00000000000000	0.00000000000000	0.00000000000000	0.00000000000000	0.00000000000000	0.00000000000000	17.35050100000000	0.00000000000000	0.00000000000000	0.00000000000000	0.00000000000000	
5.06497700000000	42.89518000000000	794.76883399999997	56.50617500000000	0.24901600000000	0.00000000000000	0.09804400000000	0.00000000000000	0.00000000000000	0.00000000000000	0.00000000000000	0.00000000000000	0.00000000000000	0.00000000000000	17.30846900000000	0.00000000000000	0.00000000000000	0.00000000000000	0.00000000000000	
5.06664200000000	42.37617700000000	793.97773500000005	56.44219700000000	0.24811000000000	0.00000000000000	0.09801000000000	0.00000000000000	0.00000000000000	0.00000000000000	0.00000000000000	0.00000000000000	0.00000000000000	0.00000000000000	17.26194000000000	0.00000000000000	0.00000000000000	0.00000000000000	0.00000000000000	
5.06831700000000	41.85022600000000	793.04256599999997	56.36472100000000	0.24718800000000	0.00000000000000	0.09797700000000	0.00000000000000	0.00000000000000	0.00000000000000	0.00000000000000	0.00000000000000	0.00000000000000	0.00000000000000	17.21098900000000	0.00000000000000	0.00000000000000	0.00000000000000	0.00000000000000	
5.06997700000000	41.31708400000000	791.96673399999997	56.27372700000000	0.24625100000000	0.00000000000000	0.09794400000000	0.00000000000000	0.00000000000000	0.00000000000000	0.00000000000000	0.00000000000000	0.00000000000000	0.00000000000000	17.15570800000000	0.00000000000000	0.00000000000000	0.00000000000000	0.00000000000000	
5.07164900000000	40.77654100000000	790.75389900000005	56.16923600000000	0.24529900000000	0.00000000000000	0.09791100000000	0.00000000000000	0.00000000000000	0.00000000000000	0.00000000000000	0.00000000000000	0.00000000000000	0.00000000000000	17.09620900000000	0.00000000000000	0.00000000000000	0.00000000000000	0.00000000000000	
5.07331700000000	40.22842100000000	789.40797199999997	56.05131600000000	0.24433100000000	0.00000000000000	0.09787800000000	0.00000000000000	0.00000000000000	0.00000000000000	0.00000000000000	0.00000000000000	0.00000000000000	0.00000000000000	17.03262200000000	0.00000000000000	0.00000000000000	0.00000000000000	0.00000000000000	
5.07497900000000	39.67258400000000	787.93310699999995	55.92007800000000	0.24334700000000	0.00000000000000	0.09784500000000	0.00000000000000	0.00000000000000	0.00000000000000	0.00000000000000	0.00000000000000	0.00000000000000	0.00000000000000	16.96509300000000	0.00000000000000	0.00000000000000	0.00000000000000	0.00000000000000	
5.07665100000000	39.10892800000000	786.33369800000003	55.77567500000000	0.24234800000000	0.00000000000000	0.09781300000000	0.00000000000000	0.00000000000000	0.00000000000000	0.00000000000000	0.00000000000000	0.00000000000000	0.00000000000000	16.89378800000000	0.00000000000000	0.00000000000000	0.00000000000000	0.00000000000000	
